<svg xmlns="http://www.w3.org/2000/svg" width="17.026" height="17.027" viewBox="0 0 17.026 17.027">
  <g id="alarm-clock" transform="translate(-2.078 -3.156)">
    <path id="Path_3803" data-name="Path 3803" d="M20.038,12.386l.26-.15a6.665,6.665,0,0,0-1.987-1.987l-.15.26a.315.315,0,1,1-.546-.315l.151-.261a6.571,6.571,0,0,0-2.715-.725v.3a.315.315,0,1,1-.631,0v-.3l-.707.117a7.9,7.9,0,0,0-1.687.477l-.322.131.151.261a.315.315,0,1,1-.546.315l-.15-.26a6.662,6.662,0,0,0-1.987,1.987l.26.15a.315.315,0,1,1-.315.546l-.261-.151A6.572,6.572,0,0,0,8.129,15.5h.3a.315.315,0,1,1,0,.631h-.3a6.57,6.57,0,0,0,.725,2.715l.261-.151a.315.315,0,0,1,.315.546l-.26.15a6.665,6.665,0,0,0,1.987,1.987l.15-.26a.315.315,0,1,1,.546.315l-.151.261a6.571,6.571,0,0,0,2.715.725v-.3a.315.315,0,1,1,.631,0v.3a6.566,6.566,0,0,0,2.715-.725l-.151-.261a.315.315,0,1,1,.546-.315l.15.26A6.662,6.662,0,0,0,20.3,19.388l-.26-.15a.315.315,0,0,1,.315-.546l.261.151a6.572,6.572,0,0,0,.725-2.715h-.3a.315.315,0,0,1,0-.631h.3a6.57,6.57,0,0,0-.725-2.715l-.261.151a.315.315,0,1,1-.315-.546ZM18.2,16.128H15.951A1.259,1.259,0,1,1,14.419,14.6V11.4a.315.315,0,0,1,.631,0v3.2a1.26,1.26,0,0,1,.9.9H18.2a.315.315,0,0,1,0,.631Z" transform="translate(-4.143 -4.143)" fill="#fff"/>
    <ellipse id="Ellipse_624" data-name="Ellipse 624" cx="0.631" cy="0.631" rx="0.631" ry="0.631" transform="translate(9.961 11.039)" fill="#fff"/>
    <path id="Path_3804" data-name="Path 3804" d="M16.267,5.33a8.493,8.493,0,0,0-11.35,0c-.087.094-.1.1-.453.439A8.5,8.5,0,0,0,6.278,19a4.57,4.57,0,0,0,.579.313,8.494,8.494,0,0,0,7.468,0c-.005-.021.58-.305.579-.313A8.5,8.5,0,0,0,16.719,5.769Zm.593,2.7c0,.005.009.008.012.014a.16.16,0,0,1,.006.017,7.225,7.225,0,0,1,0,7.217c0,.006,0,.012-.006.017a.261.261,0,0,1-.016.021,7.307,7.307,0,0,1-2.625,2.622c-.005,0-.008.009-.014.012s-.017.007-.025.01a7.226,7.226,0,0,1-7.2,0c-.008,0-.017-.006-.025-.01s-.008-.009-.014-.012a7.3,7.3,0,0,1-2.625-2.622.261.261,0,0,1-.016-.021.159.159,0,0,1-.006-.017,7.225,7.225,0,0,1,0-7.217c0-.006,0-.012.006-.017s.009-.008.012-.014A7.3,7.3,0,0,1,6.952,5.4c.005,0,.008-.009.014-.012s.012,0,.017-.006a7.225,7.225,0,0,1,7.217,0c.006,0,.012,0,.017.006s.008.009.014.012A7.3,7.3,0,0,1,16.86,8.03Z" transform="translate(0 0)" fill="#fff"/>
  </g>
</svg>
