<svg xmlns="http://www.w3.org/2000/svg" width="30.424" height="33.181" viewBox="0 0 30.424 33.181">
  <g id="Group_3029" data-name="Group 3029" transform="translate(-1594 -31.866)">
    <path id="ios-notifications" d="M91.046,93.041a4.157,4.157,0,0,0,8.315,0ZM105.4,78.278c0-8.557-4.235-11.478-8.2-12.143,0-.052.009-.1.009-.147a1.988,1.988,0,0,0-3.976,0,.939.939,0,0,0,.009.156c-3.967.674-8.2,3.621-8.2,12.161C85.022,88.287,83.077,88.892,80,91.658h30.424C107.364,88.892,105.4,88.278,105.4,78.278Z" transform="translate(1514 -32.134)" fill="#ced0d9"/>
  </g>
</svg>
