<svg xmlns="http://www.w3.org/2000/svg" width="15.999" height="16" viewBox="0 0 15.999 16">
  <g id="download-to-storage-drive" transform="translate(0 -1)">
    <g id="Group_2263" data-name="Group 2263" transform="translate(0 1)">
      <path id="Path_3140" data-name="Path 3140" d="M15.73,310.9a.89.89,0,0,0-.654-.269H10.615l-1.308,1.308a1.857,1.857,0,0,1-2.615,0l-1.3-1.308H.923a.891.891,0,0,0-.654.269.89.89,0,0,0-.269.654v3.077a.89.89,0,0,0,.269.654.89.89,0,0,0,.654.269H15.076a.919.919,0,0,0,.923-.923v-3.077A.89.89,0,0,0,15.73,310.9Zm-3.605,3.24a.6.6,0,1,1,.183-.433A.592.592,0,0,1,12.124,314.142Zm2.461,0a.6.6,0,1,1,.183-.433A.591.591,0,0,1,14.585,314.142Z" transform="translate(0 -299.556)" fill="#4d4f5c"/>
      <path id="Path_3141" data-name="Path 3141" d="M95.567,28.548a.6.6,0,0,0,.865,0l4.307-4.308a.555.555,0,0,0,.135-.673.575.575,0,0,0-.567-.375H97.846V18.885a.624.624,0,0,0-.615-.615H94.769a.624.624,0,0,0-.615.615v4.308H91.692a.575.575,0,0,0-.567.375.555.555,0,0,0,.135.673Z" transform="translate(-88 -18.27)" fill="#4d4f5c"/>
    </g>
  </g>
</svg>
