<svg xmlns="http://www.w3.org/2000/svg" width="13.092" height="15.995" viewBox="0 0 13.092 15.995">
  <g id="file-3" transform="translate(-86.9)">
    <path id="Path_3172" data-name="Path 3172" d="M198.582,108.4h.468v11.49a1.386,1.386,0,0,0,1.385,1.385h8.507v.426a.884.884,0,0,1-.884.884h-9.474a.884.884,0,0,1-.884-.884V109.284A.882.882,0,0,1,198.582,108.4Z" transform="translate(-110.8 -106.589)" fill="#4d4f5c"/>
    <path id="Path_3173" data-name="Path 3173" d="M92.521,14.184H87.784A.884.884,0,0,1,86.9,13.3V.884A.884.884,0,0,1,87.784,0H94.1V.292a.856.856,0,0,0-.005.094v2.42a1.245,1.245,0,0,0,1.244,1.244h2.42c.025,0,.052,0,.077,0h.307V13.3a.884.884,0,0,1-.884.884H92.521Zm-.179-3H95.43a.418.418,0,0,0,0-.835H92.34a.418.418,0,1,0,0,.835ZM89.252,9.05H95.43a.418.418,0,0,0,0-.835H89.252a.418.418,0,0,0,0,.835Zm6.179-3.1H89.252a.418.418,0,0,0,0,.835H95.43a.418.418,0,0,0,0-.835Z" transform="translate(1.852)" fill="#4d4f5c"/>
    <path id="Path_3174" data-name="Path 3174" d="M90.708,4.336H88.281a.741.741,0,0,1-.735-.735V1.172A.372.372,0,0,1,87.92.8a.362.362,0,0,1,.261.11L90.972,3.7A.372.372,0,0,1,90.708,4.336Z" transform="translate(8.9 -0.787)" fill="#4d4f5c"/>
  </g>
</svg>
