<svg xmlns="http://www.w3.org/2000/svg" width="309.649" height="173.834" viewBox="0 0 309.649 173.834">
  <defs>
    <style>
      .cls-1 {
        fill: #74c9bd;
      }

      .cls-2 {
        fill: #53c2b7;
      }

      .cls-3 {
        fill: #2b3034;
      }

      .cls-4 {
        fill: #f0f4f7;
        stroke: #aeb0b3;
        stroke-miterlimit: 10;
      }
    </style>
  </defs>
  <g id="Group_785" data-name="Group 785" transform="translate(-234.362 -174.582)">
    <g id="Group_784" data-name="Group 784" transform="translate(264.573 174.582)">
      <path id="Path_355" data-name="Path 355" class="cls-1" d="M257.837,210.685V178.293a11.393,11.393,0,0,0,7.214-3.711V210.84Z" transform="translate(-253.692 -174.582)"/>
      <path id="Path_356" data-name="Path 356" class="cls-2" d="M255.005,253.255V190.53q5.782,6.579,15.5,7.975v54.417Z" transform="translate(-255.005 -167.19)"/>
    </g>
    <path id="Path_4094" data-name="Path 4094" class="cls-3" d="M9.105-11.268H5.467V0H3.99V-11.268H.36V-12.6H9.105ZM39.3,0H37.819V-5.748H31.3V0H29.821V-12.6H31.3v5.528h6.521V-12.6H39.3ZM68.018,0h-6.68V-12.6h6.4v1.336H62.815v4.192h4.553v1.327H62.815v4.412h5.2ZM112.85,0V-12.6h3.586a3.919,3.919,0,0,1,2.593.8,2.585,2.585,0,0,1,.958,2.083,3.065,3.065,0,0,1-.58,1.863,3.128,3.128,0,0,1-1.6,1.125V-6.7a3.207,3.207,0,0,1,2.039.962,2.96,2.96,0,0,1,.765,2.114A3.3,3.3,0,0,1,119.451-1a4.318,4.318,0,0,1-2.927,1Zm1.477-11.268V-7.2h1.512a2.871,2.871,0,0,0,1.907-.584,2.035,2.035,0,0,0,.694-1.648q0-1.837-2.417-1.837Zm0,5.4v4.535h2a3,3,0,0,0,2.017-.615,2.107,2.107,0,0,0,.716-1.687q0-2.232-3.041-2.232Zm36.8.773q0,5.309-4.79,5.309-4.588,0-4.588-5.106V-12.6h1.477v7.611q0,3.876,3.27,3.876,3.155,0,3.155-3.744V-12.6h1.477ZM174.488,0h-1.477V-12.6h1.477Zm28.591,0h-6.539V-12.6h1.477V-1.336h5.063ZM223.75,0V-12.6h3.48q6.662,0,6.662,6.144a6.191,6.191,0,0,1-1.85,4.689A6.863,6.863,0,0,1,227.09,0Zm1.477-11.268v9.932h1.881a5.338,5.338,0,0,0,3.858-1.327,4.975,4.975,0,0,0,1.38-3.762q0-4.843-5.15-4.843ZM261.789,0h-6.68V-12.6h6.4v1.336h-4.922v4.192h4.553v1.327h-4.553v4.412h5.2Zm30.2,0H290.23L288.12-3.533a7.7,7.7,0,0,0-.562-.839A3.207,3.207,0,0,0,287-4.939a1.933,1.933,0,0,0-.615-.321,2.53,2.53,0,0,0-.743-.1h-1.213V0h-1.477V-12.6h3.762a5.361,5.361,0,0,1,1.525.207,3.412,3.412,0,0,1,1.213.628,2.92,2.92,0,0,1,.8,1.05,3.483,3.483,0,0,1,.29,1.472,3.545,3.545,0,0,1-.2,1.208,3.156,3.156,0,0,1-.562.98,3.41,3.41,0,0,1-.879.734,4.487,4.487,0,0,1-1.156.47v.035a2.658,2.658,0,0,1,.549.321,3.023,3.023,0,0,1,.444.426,5.646,5.646,0,0,1,.417.558q.207.312.461.725Zm-7.559-11.268V-6.7h2a3.039,3.039,0,0,0,1.024-.167,2.37,2.37,0,0,0,.813-.479,2.172,2.172,0,0,0,.536-.765A2.56,2.56,0,0,0,289-9.123a1.976,1.976,0,0,0-.655-1.578,2.813,2.813,0,0,0-1.894-.567Z" transform="translate(239.642 348.204)"/>
    <path id="Path_357" data-name="Path 357" class="cls-4" d="M278.246,271.014" transform="translate(20.34 44.695)"/>
    <path id="Path_358" data-name="Path 358" class="cls-3" d="M283.983,286.492q0,11.007-20.16,13.912c-6.461,1.022-15.427.064-29.462-4.314q26.782.966,26.337-11.755V236.892c14.168-9.971,18.474-14.844,23.21-29.587Z" transform="translate(0 15.167)"/>
    <path id="Path_359" data-name="Path 359" class="cls-3" d="M523.672,232.665q0-7.664-6.473-9.6-2.38-.6-11.531-.6H468.1v81.483H431.2q6.917-11.158,19.194-12.946V230.8q0-8.926-27-8.929-28.567,0-28.567,8.929v60.2q13.463,1.936,19.192,12.946H375.4V231.92q0-7.661-6.473-9.6-2.38-.593-11.456-.594H319.831v82.226h-18.45V186.485q-14.5-2.081-23.135-11.9V315.709l245.426-.075Zm-171.477,71.29h-9.226V229.317q9.224,0,9.226,5.506Zm74.988,0h-9.151V232.441q0-2.527,4.688-2.529,4.465,0,4.464,2.529Zm73.277,0h-9.3V230.061q9.3,0,9.3,5.5Z" transform="translate(20.34)"/>
  </g>
</svg>
