<svg xmlns="http://www.w3.org/2000/svg" width="50" height="44.188" viewBox="0 0 50 44.188">
  <path id="Path_3068" data-name="Path 3068" d="M25.428,0A24.976,24.976,0,0,0,8.914,44.1a6.643,6.643,0,0,1,1.186-.843l7.46-4.068a3.046,3.046,0,0,0,1.588-2.674V33.46A16.578,16.578,0,0,1,16.122,27.2a2.508,2.508,0,0,1-1.157-2.1V21.756A2.5,2.5,0,0,1,15.8,19.9V15.068S14.808,7.545,25,7.545s9.2,7.523,9.2,7.523V19.9a2.493,2.493,0,0,1,.836,1.853V25.1a2.508,2.508,0,0,1-1.779,2.386,18.372,18.372,0,0,1-2.483,5,12.062,12.062,0,0,1-.756.971v3.133A3.044,3.044,0,0,0,31.7,39.317l7.988,3.992A6.651,6.651,0,0,1,41,44.188,24.985,24.985,0,0,0,25.428,0Z" fill="#ced0d9"/>
</svg>
