<svg xmlns="http://www.w3.org/2000/svg" width="50" height="50.002" viewBox="0 0 50 50.002">
  <g id="Group_3028" data-name="Group 3028" transform="translate(-1666.035 -23)">
    <path id="Path_1913" data-name="Path 1913" d="M18.082,39.733l-7.449,4.079a6.694,6.694,0,0,0-1.2.854,24.876,24.876,0,0,0,32.057.083,6.608,6.608,0,0,0-1.313-.883l-7.977-4a3.055,3.055,0,0,1-1.682-2.731V33.989a12.088,12.088,0,0,0,.755-.974A18.455,18.455,0,0,0,33.757,28a2.514,2.514,0,0,0,1.777-2.393V22.252a2.508,2.508,0,0,0-.835-1.858V15.546S35.691,8,25.513,8s-9.186,7.545-9.186,7.545v4.848a2.5,2.5,0,0,0-.835,1.858v3.354a2.517,2.517,0,0,0,1.155,2.11,16.666,16.666,0,0,0,3.02,6.273v3.064A3.059,3.059,0,0,1,18.082,39.733Z" transform="translate(1665.525 22.441)" fill="#f0f1f6"/>
    <path id="Path_1912" data-name="Path 1912" d="M25.428,0A24.976,24.976,0,0,0,8.914,44.1a6.643,6.643,0,0,1,1.186-.843l7.46-4.068a3.046,3.046,0,0,0,1.588-2.674V33.46A16.578,16.578,0,0,1,16.122,27.2a2.508,2.508,0,0,1-1.157-2.1V21.756A2.5,2.5,0,0,1,15.8,19.9V15.068S14.808,7.545,25,7.545s9.2,7.523,9.2,7.523V19.9a2.493,2.493,0,0,1,.836,1.853V25.1a2.508,2.508,0,0,1-1.779,2.386,18.372,18.372,0,0,1-2.483,5,12.062,12.062,0,0,1-.756.971v3.133A3.044,3.044,0,0,0,31.7,39.317l7.988,3.992A6.651,6.651,0,0,1,41,44.188,24.985,24.985,0,0,0,25.428,0Z" transform="translate(1666.035 23)" fill="#2b3034"/>
  </g>
</svg>
