<svg id="Group_2348" data-name="Group 2348" xmlns="http://www.w3.org/2000/svg" width="16" height="15.998" viewBox="0 0 16 15.998">
  <path id="Path_3165" data-name="Path 3165" d="M116.263,9.922a3.746,3.746,0,0,0,3.42-4c0-3.066-1.531-4-3.42-4s-3.42.937-3.42,4A3.746,3.746,0,0,0,116.263,9.922Z" transform="translate(-108.184 -1.916)" fill="#fff"/>
  <path id="Path_3166" data-name="Path 3166" d="M15.921,227.118l-1.81-3.887a.885.885,0,0,0-.409-.415l-2.809-1.394a.188.188,0,0,0-.193.015,4.6,4.6,0,0,1-5.4,0,.189.189,0,0,0-.193-.015L2.3,222.816a.884.884,0,0,0-.409.415l-1.81,3.887a.825.825,0,0,0,.068.82.914.914,0,0,0,.759.392H15.094a.914.914,0,0,0,.759-.392A.825.825,0,0,0,15.921,227.118Z" transform="translate(0.001 -212.332)" fill="#fff"/>
</svg>
